<?xml version="1.0" encoding="UTF-8"?>
<!DOCTYPE svg PUBLIC "-//W3C//DTD SVG 1.1//EN" "http://www.w3.org/Graphics/SVG/1.1/DTD/svg11.dtd">
<!-- Creator: CorelDRAW -->
<svg xmlns="http://www.w3.org/2000/svg" xml:space="preserve" width="35mm" height="24.1148mm" version="1.1" style="shape-rendering:geometricPrecision; text-rendering:geometricPrecision; image-rendering:optimizeQuality; fill-rule:evenodd; clip-rule:evenodd"
viewBox="0 0 7276.94 5013.77"
 xmlns:xlink="http://www.w3.org/1999/xlink"
 xmlns:xodm="http://www.corel.com/coreldraw/odm/2003">
 <defs>
  <style type="text/css">
   <![CDATA[
    .fil0 {fill:#333333}
   ]]>
  </style>
 </defs>
 <g id="Слой_x0020_1">
  <metadata id="CorelCorpID_0Corel-Layer"/>
  <g id="_1625644384">
   <path class="fil0" d="M3666.08 4117.92c-669.48,0 -1277.5,-154.73 -1719.08,-404.58 -456.72,-258.48 -739.27,-621.01 -739.27,-1025.7 0,-404.68 282.55,-767.24 739.27,-1025.7 239.72,-135.64 528.56,-243.32 849.74,-313.28 -30.73,62.52 -51.25,128.74 -56.8,196.56 -265.17,65.49 -503.75,158.39 -704.8,272.07 -400.44,226.65 -648.25,534.83 -648.25,870.34 0,335.49 247.81,643.7 648.25,870.34 415.62,235.17 992.22,380.73 1630.95,380.73l0 179.2zm869.37 -2769.25l0 0c253.63,55.26 486.91,134.02 691.97,231.49l-134.54 134.56c-152.32,-67.72 -320.29,-124.98 -500.63,-169.49 -5.55,-67.82 -26.07,-134.04 -56.8,-196.56zm1564.19 1132.92l0 0 -289.54 289.56c4.84,392.83 -192.26,775.64 -471.3,1049.88 -510.95,482.34 -1226.31,655.24 -1672.72,655.24l-1791.75 0 0 537.52 1791.75 0c478.76,0 1246.17,-185.79 1795.26,-704.14 384.7,-363.29 663.12,-887.72 663.12,-1621.99 0,-70.07 -8.52,-138.86 -24.82,-206.06z"/>
   <path class="fil0" d="M3576.49 2036.34c-625.46,-18.21 -658.92,-229.49 -658.92,-454.35 0,-127.8 98.86,-286.55 255.5,-404.78 -36.88,-71.54 -57.63,-152.17 -57.63,-237.56 0,-161.26 74.04,-305.65 190.95,-403.29 -21.96,-47.49 -34.2,-100.05 -34.2,-155.44 0,-210.39 176.35,-380.92 393.89,-380.92 217.56,0 393.89,170.53 393.89,380.92 0,55.39 -12.25,107.95 -34.18,155.44 116.91,97.64 190.97,242.03 190.97,403.29 0,85.39 -20.75,166.02 -57.63,237.56 156.62,118.24 255.46,276.98 255.46,404.78 0,224.86 -33.43,436.14 -658.92,454.35l0 472.13 374.62 0 0 179.18 -374.62 0 -179.18 0 0 -651.31zm89.59 -1857.14l0 0c-118.55,0 -214.69,90.32 -214.69,201.72 0,62.39 30.13,118.09 77.49,155.12l0 75.12c-137.24,51.96 -234.28,179.45 -234.28,328.48 0,92.13 37.01,176.19 97.8,239.04l0 80.19c-154.08,72.42 -295.63,191.72 -295.63,323.12 0,312.35 312.95,276.52 569.31,276.52l0 -1272.3 0 -3.58 0 -403.43z"/>
   <path class="fil0" d="M1747.05 0l-1747.05 0 0 2598.05 1032.31 0c37.36,-443.29 349.13,-790.17 714.74,-1024.7 36.72,-23.66 74.08,-46.05 111.71,-67.36 328.52,-185.81 706.3,-304.88 1090.09,-369.02l12.29 -12.45c-16.51,-59.94 -24.91,-122.02 -24.91,-184.92 0,-168.33 60.46,-327.44 167,-453.12 -6.82,-34.68 -10.23,-69.96 -10.23,-105.54 0,-148.53 58.51,-281.74 152.92,-380.94l-1498.86 0zm-1747.05 2777.23l0 0 0 2236.54 1695.15 0c0,-415.41 0,-830.74 0,-1246.14 -342.85,-233.47 -627.11,-568.27 -662.76,-990.39l-1032.39 0zm4086.27 -2777.23l0 0 2013.36 0 0 707.94 -738.17 738.19c-301.12,-151.94 -637.25,-252.09 -978.15,-309.08l-12.27 -12.54c16.51,-59.94 24.91,-122.02 24.91,-184.92 0,-168.33 -60.48,-327.44 -167,-453.12 6.82,-34.68 10.21,-69.96 10.21,-105.54 0,-148.53 -58.49,-281.74 -152.9,-380.94z"/>
   <path class="fil0" d="M6643.45 417.49l633.49 633.47 -2533.93 2533.91 -538.45 221.74 -538.47 221.72 221.72 -538.47 221.72 -538.45 2533.93 -2533.91zm0 253.38l0 0 -2318.56 2318.56 380.11 380.06 2318.54 -2318.54 -380.08 -380.08zm-2418.81 2471.66l0 0 -125.68 305.07 147.87 147.85 305.05 -125.66 -327.23 -327.25z"/>
  </g>
 </g>
</svg>
