<?xml version="1.0" encoding="UTF-8"?>
<!DOCTYPE svg PUBLIC "-//W3C//DTD SVG 1.1//EN" "http://www.w3.org/Graphics/SVG/1.1/DTD/svg11.dtd">
<!-- Creator: CorelDRAW -->
<svg xmlns="http://www.w3.org/2000/svg" xml:space="preserve" width="35mm" height="24.1148mm" version="1.1" style="shape-rendering:geometricPrecision; text-rendering:geometricPrecision; image-rendering:optimizeQuality; fill-rule:evenodd; clip-rule:evenodd"
viewBox="0 0 1098.73 757.02"
 xmlns:xlink="http://www.w3.org/1999/xlink"
 xmlns:xodm="http://www.corel.com/coreldraw/odm/2003">
 <defs>
  <style type="text/css">
   <![CDATA[
    .fil0 {fill:#B3B3B3}
   ]]>
  </style>
 </defs>
 <g id="Слой_x0020_1">
  <metadata id="CorelCorpID_0Corel-Layer"/>
  <g id="_1571197744">
   <path class="fil0" d="M553.53 621.76c-101.08,0 -192.89,-23.36 -259.56,-61.09 -68.96,-39.03 -111.62,-93.77 -111.62,-154.87 0,-61.1 42.66,-115.84 111.62,-154.87 36.2,-20.48 79.81,-36.74 128.3,-47.3 -4.64,9.44 -7.74,19.44 -8.58,29.68 -40.04,9.89 -76.06,23.91 -106.42,41.08 -60.46,34.22 -97.88,80.75 -97.88,131.41 0,50.65 37.42,97.19 97.88,131.41 62.75,35.51 149.81,57.49 246.25,57.49l0 27.06zm131.26 -418.12l0 0c38.3,8.34 73.52,20.24 104.48,34.95l-20.31 20.32c-23,-10.22 -48.36,-18.87 -75.59,-25.59 -0.84,-10.24 -3.93,-20.24 -8.58,-29.68zm236.17 171.06l0 0 -43.72 43.72c0.73,59.31 -29.03,117.11 -71.16,158.52 -77.14,72.83 -185.16,98.93 -252.56,98.93l-270.53 0 0 81.16 270.53 0c72.29,0 188.16,-28.05 271.06,-106.32 58.09,-54.85 100.12,-134.04 100.12,-244.9 0,-10.58 -1.29,-20.97 -3.75,-31.11z"/>
   <path class="fil0" d="M540.01 307.46c-94.43,-2.75 -99.49,-34.65 -99.49,-68.6 0,-19.3 14.93,-43.26 38.58,-61.12 -5.57,-10.8 -8.7,-22.98 -8.7,-35.87 0,-24.35 11.18,-46.15 28.83,-60.89 -3.32,-7.17 -5.16,-15.11 -5.16,-23.47 0,-31.77 26.62,-57.51 59.47,-57.51 32.85,0 59.47,25.75 59.47,57.51 0,8.36 -1.85,16.3 -5.16,23.47 17.65,14.74 28.83,36.54 28.83,60.89 0,12.89 -3.13,25.07 -8.7,35.87 23.65,17.85 38.57,41.82 38.57,61.12 0,33.95 -5.05,65.85 -99.49,68.6l0 71.29 56.56 0 0 27.05 -56.56 0 -27.06 0 0 -98.34zm13.53 -280.41l0 0c-17.9,0 -32.42,13.64 -32.42,30.46 0,9.42 4.55,17.83 11.7,23.42l0 11.34c-20.72,7.84 -35.37,27.09 -35.37,49.6 0,13.91 5.59,26.6 14.77,36.09l0 12.11c-23.27,10.93 -44.64,28.95 -44.64,48.79 0,47.16 47.25,41.75 85.96,41.75l0 -192.1 0 -0.54 0 -60.91z"/>
   <path class="fil0" d="M263.78 0l-263.78 0 0 392.27 155.87 0c5.64,-66.93 52.71,-119.31 107.92,-154.72 5.54,-3.57 11.19,-6.95 16.87,-10.17 49.6,-28.06 106.65,-46.03 164.59,-55.72l1.86 -1.88c-2.49,-9.05 -3.76,-18.42 -3.76,-27.92 0,-25.42 9.13,-49.44 25.21,-68.42 -1.03,-5.24 -1.54,-10.56 -1.54,-15.93 0,-22.43 8.83,-42.54 23.09,-57.52l-226.31 0zm-263.78 419.33l0 0 0 337.69 255.95 0c0,-62.72 0,-125.43 0,-188.15 -51.77,-35.25 -94.69,-85.8 -100.07,-149.54l-155.88 0zm616.98 -419.33l0 0 303.99 0 0 106.89 -111.46 111.46c-45.47,-22.94 -96.22,-38.06 -147.69,-46.67l-1.85 -1.89c2.49,-9.05 3.76,-18.42 3.76,-27.92 0,-25.42 -9.13,-49.44 -25.21,-68.42 1.03,-5.24 1.54,-10.56 1.54,-15.93 0,-22.43 -8.83,-42.54 -23.09,-57.52z"/>
   <path class="fil0" d="M1003.08 63.04l95.65 95.65 -382.59 382.59 -81.3 33.48 -81.3 33.48 33.48 -81.3 33.48 -81.3 382.6 -382.59zm0 38.26l0 0 -350.08 350.07 57.39 57.39 350.07 -350.07 -57.39 -57.39zm-365.21 373.19l0 0 -18.98 46.06 22.33 22.32 46.06 -18.97 -49.41 -49.41z"/>
  </g>
 </g>
</svg>
