<svg width="158" height="32" viewBox="0 0 158 32" fill="none" xmlns="http://www.w3.org/2000/svg">
<path fill-rule="evenodd" clip-rule="evenodd" d="M42.0293 25.7947H49.2553C51.421 25.7947 53.2744 25.3754 54.8154 24.5369C56.3633 23.6983 57.5468 22.495 58.3659 20.927C59.192 19.359 59.605 17.4842 59.605 15.3027C59.605 13.1279 59.1954 11.2599 58.3763 9.69875C57.5573 8.13756 56.3842 6.9411 54.857 6.10938C53.3369 5.27083 51.5182 4.85156 49.4011 4.85156H42.0293V25.7947ZM49.0679 22.5121H45.8922V8.13415H49.1824C50.6262 8.13415 51.8341 8.40003 52.8059 8.93179C53.7846 9.45673 54.5239 10.251 55.0236 11.3145C55.5234 12.3712 55.7733 13.7006 55.7733 15.3027C55.7733 16.9048 55.5234 18.241 55.0236 19.3113C54.5239 20.3748 53.7777 21.1759 52.785 21.7144C51.7924 22.2462 50.5534 22.5121 49.0679 22.5121ZM61.9358 10.0873V25.7947H65.705V10.0873H61.9358ZM68.4081 31.6849V10.0873H72.1148V12.6848H72.3335C72.5279 12.303 72.8021 11.8974 73.1561 11.4679C73.5101 11.0315 73.989 10.66 74.5929 10.3532C75.1968 10.0396 75.9673 9.88282 76.9044 9.88282C78.14 9.88282 79.2541 10.193 80.2467 10.8134C81.2463 11.427 82.0376 12.3371 82.6207 13.5438C83.2107 14.7436 83.5057 16.2162 83.5057 17.9615C83.5057 19.6863 83.2177 21.152 82.6415 22.3587C82.0654 23.5654 81.281 24.4857 80.2884 25.1197C79.2957 25.7538 78.1712 26.0708 76.9148 26.0708C75.9986 26.0708 75.2385 25.9208 74.6346 25.6208C74.0307 25.3209 73.5448 24.9595 73.1769 24.5369C72.8159 24.1074 72.5348 23.7017 72.3335 23.3199H72.1773V31.6849H68.4081ZM72.1044 17.941C72.1044 18.9568 72.2502 19.8465 72.5417 20.61C72.8402 21.3736 73.2671 21.9701 73.8224 22.3996C74.3847 22.8223 75.065 23.0336 75.8632 23.0336C76.6962 23.0336 77.3938 22.8155 77.9561 22.3791C78.5183 21.936 78.9417 21.3327 79.2263 20.5691C79.5179 19.7987 79.6637 18.9227 79.6637 17.941C79.6637 16.9661 79.5213 16.1003 79.2367 15.3436C78.9522 14.5868 78.5287 13.9937 77.9665 13.5642C77.4042 13.1347 76.7031 12.92 75.8632 12.92C75.058 12.92 74.3743 13.1279 73.812 13.5438C73.2498 13.9596 72.8229 14.5425 72.5313 15.2924C72.2467 16.0423 72.1044 16.9252 72.1044 17.941ZM89.3299 25.7947V4.85156H85.5607V25.7947H89.3299ZM99.0091 26.1014C97.4473 26.1014 96.0937 25.764 94.9484 25.0891C93.803 24.4141 92.9145 23.4699 92.2828 22.2564C91.6581 21.0429 91.3458 19.6249 91.3458 18.0024C91.3458 16.3798 91.6581 14.9584 92.2828 13.7381C92.9145 12.5177 93.803 11.5701 94.9484 10.8952C96.0937 10.2203 97.4473 9.88282 99.0091 9.88282C100.571 9.88282 101.924 10.2203 103.07 10.8952C104.215 11.5701 105.1 12.5177 105.725 13.7381C106.357 14.9584 106.672 16.3798 106.672 18.0024C106.672 19.6249 106.357 21.0429 105.725 22.2564C105.1 23.4699 104.215 24.4141 103.07 25.0891C101.924 25.764 100.571 26.1014 99.0091 26.1014ZM99.0299 23.1359C99.8768 23.1359 100.585 22.9075 101.154 22.4507C101.723 21.9871 102.147 21.3668 102.424 20.5896C102.709 19.8124 102.851 18.9466 102.851 17.9921C102.851 17.0309 102.709 16.1617 102.424 15.3845C102.147 14.6005 101.723 13.9767 101.154 13.5131C100.585 13.0495 99.8768 12.8177 99.0299 12.8177C98.1622 12.8177 97.4403 13.0495 96.8642 13.5131C96.295 13.9767 95.8681 14.6005 95.5835 15.3845C95.3058 16.1617 95.167 17.0309 95.167 17.9921C95.167 18.9466 95.3058 19.8124 95.5835 20.5896C95.8681 21.3668 96.295 21.9871 96.8642 22.4507C97.4403 22.9075 98.1622 23.1359 99.0299 23.1359ZM111.26 25.1197C112.253 25.7538 113.377 26.0708 114.634 26.0708C115.55 26.0708 116.31 25.9208 116.914 25.6208C117.518 25.3209 118.004 24.9595 118.372 24.5369C118.739 24.1074 119.021 23.7017 119.215 23.3199H119.444V25.7947H123.151V4.85156H119.371V12.6848H119.215C119.021 12.303 118.746 11.8974 118.392 11.4679C118.038 11.0315 117.559 10.66 116.956 10.3532C116.352 10.0396 115.581 9.88282 114.644 9.88282C113.415 9.88282 112.301 10.193 111.302 10.8134C110.302 11.427 109.507 12.3371 108.917 13.5438C108.334 14.7436 108.043 16.2162 108.043 17.9615C108.043 19.6863 108.331 21.152 108.907 22.3587C109.483 23.5654 110.267 24.4857 111.26 25.1197ZM117.726 22.3996C117.164 22.8223 116.484 23.0336 115.685 23.0336C114.859 23.0336 114.162 22.8155 113.592 22.3791C113.03 21.936 112.603 21.3327 112.312 20.5691C112.027 19.7987 111.885 18.9227 111.885 17.941C111.885 16.9661 112.027 16.1003 112.312 15.3436C112.596 14.5868 113.02 13.9937 113.582 13.5642C114.144 13.1347 114.845 12.92 115.685 12.92C116.497 12.92 117.181 13.1279 117.736 13.5438C118.299 13.9596 118.722 14.5425 119.007 15.2924C119.298 16.0423 119.444 16.9252 119.444 17.941C119.444 18.9568 119.298 19.8465 119.007 20.61C118.715 21.3736 118.288 21.9701 117.726 22.3996ZM132.971 26.1014C131.409 26.1014 130.055 25.764 128.91 25.0891C127.764 24.4141 126.876 23.4699 126.244 22.2564C125.62 21.0429 125.307 19.6249 125.307 18.0024C125.307 16.3798 125.62 14.9584 126.244 13.7381C126.876 12.5177 127.764 11.5701 128.91 10.8952C130.055 10.2203 131.409 9.88282 132.971 9.88282C134.532 9.88282 135.886 10.2203 137.031 10.8952C138.177 11.5701 139.062 12.5177 139.686 13.7381C140.318 14.9584 140.634 16.3798 140.634 18.0024C140.634 19.6249 140.318 21.0429 139.686 22.2564C139.062 23.4699 138.177 24.4141 137.031 25.0891C135.886 25.764 134.532 26.1014 132.971 26.1014ZM132.991 23.1359C133.838 23.1359 134.546 22.9075 135.115 22.4507C135.685 21.9871 136.108 21.3668 136.386 20.5896C136.67 19.8124 136.813 18.9466 136.813 17.9921C136.813 17.0309 136.67 16.1617 136.386 15.3845C136.108 14.6005 135.685 13.9767 135.115 13.5131C134.546 13.0495 133.838 12.8177 132.991 12.8177C132.124 12.8177 131.402 13.0495 130.826 13.5131C130.256 13.9767 129.83 14.6005 129.545 15.3845C129.267 16.1617 129.128 17.0309 129.128 17.9921C129.128 18.9466 129.267 19.8124 129.545 20.5896C129.83 21.3668 130.256 21.9871 130.826 22.4507C131.402 22.9075 132.124 23.1359 132.991 23.1359ZM145.524 25.0686C146.669 25.7572 148.04 26.1014 149.636 26.1014C150.976 26.1014 152.142 25.8628 153.135 25.3856C154.127 24.9016 154.912 24.2335 155.488 23.3813C156.064 22.5223 156.397 21.5372 156.487 20.4259H152.885C152.774 20.9918 152.569 21.4724 152.271 21.8678C151.972 22.2632 151.601 22.5666 151.156 22.778C150.719 22.9825 150.223 23.0847 149.668 23.0847C148.883 23.0847 148.199 22.8802 147.616 22.4712C147.04 22.0553 146.592 21.4656 146.273 20.7021C145.954 19.9317 145.794 19.0113 145.794 17.941C145.794 16.8843 145.954 15.9776 146.273 15.2209C146.599 14.4641 147.054 13.8846 147.637 13.4824C148.22 13.0734 148.897 12.8688 149.668 12.8688C150.577 12.8688 151.302 13.1245 151.844 13.6358C152.392 14.1403 152.739 14.7709 152.885 15.5276H156.487C156.404 14.3959 156.064 13.4074 155.467 12.5621C154.87 11.7099 154.068 11.052 153.062 10.5884C152.062 10.118 150.914 9.88282 149.615 9.88282C148.054 9.88282 146.7 10.2271 145.555 10.9157C144.416 11.5974 143.535 12.5518 142.91 13.779C142.285 14.9993 141.973 16.4071 141.973 18.0024C141.973 19.5908 142.278 20.9952 142.889 22.2155C143.507 23.429 144.385 24.3801 145.524 25.0686ZM61.9121 4.85571V7.63057H65.7086V4.85571H61.9121Z" fill="#1D4634"/>
<path fill-rule="evenodd" clip-rule="evenodd" d="M17.6103 0H10.4532C9.93312 0 9.51152 0.421604 9.51152 0.94168V6.65892H0.941677C0.421603 6.65892 0 7.08053 0 7.6006V31.0583C0 31.5784 0.421604 32 0.941678 32H20.0577C20.5778 32 20.9994 31.5784 20.9994 31.0583V25.4336H29.5692C30.0893 25.4336 30.5109 25.012 30.5109 24.4919V12.9007C30.5109 5.77582 24.7351 0 17.6103 0ZM20.9994 25.4336V7.6006C20.9994 7.08053 20.5778 6.65892 20.0577 6.65892H9.51152V24.4919C9.51152 25.012 9.93312 25.4336 10.4532 25.4336H20.9994Z" fill="#63D490"/>
<script xmlns=""/></svg>